<svg xmlns="http://www.w3.org/2000/svg" id="Layer_1" data-name="Layer 1" viewBox="0 0 1354.19 735.63"><defs><style>.cls-1{fill:#0196d7}.cls-2{fill:#0096d7}.cls-3{fill:#ee3c34}</style></defs><path d="M1347.3 295.63c-.04-4.34-.71-8.66-.91-13-.71-15.51-1.25-31.04-2.04-46.55-.5-9.83-1.11-19.66-2.07-29.45-1.04-10.55-2.49-21.07-3.87-31.58-1.29-9.86-2.37-19.77-4.2-29.53-2.18-11.62-5.18-23.09-7.62-34.66-4.44-21.11-14.49-38.47-33.22-50.5-11.99-7.7-25.72-10.23-39.2-13.11-15.96-3.42-32.2-5.59-48.35-8.14-13.1-2.08-26.2-4.22-39.37-5.8-13.71-1.65-27.51-2.59-41.26-3.98-15.21-1.54-30.39-3.39-45.61-4.83-12.68-1.2-25.39-2.07-38.09-3-13.35-.98-26.71-1.93-40.08-2.77a5674.43 5674.43 0 0 0-50.5-2.97c-14.07-.76-28.15-1.38-42.22-2.03-14.4-.66-28.8-1.35-43.2-1.91-19.02-.73-38.04-1.4-57.07-1.97a3140.3 3140.3 0 0 0-43.39-.99c-20.95-.35-41.91-.96-62.87-.8-44.66.36-89.32 1.11-133.98 1.79-10.18.15-20.35.61-30.52.95-19.36.64-38.71 1.24-58.07 1.97-14.25.54-28.5 1.24-42.74 1.94-19.32.94-38.64 1.87-57.95 2.95a3084 3084 0 0 0-45.04 2.92 7199.1 7199.1 0 0 0-52.77 3.91c-11.55.89-23.1 1.84-34.64 2.92-16.55 1.55-33.11 3.06-49.63 4.92-18.41 2.07-36.87 3.96-55.14 6.95-19.74 3.23-39.34 7.36-58.88 11.63-17.09 3.73-31.56 11.94-41.78 26.47-8.79 12.49-11.91 27.12-15.59 41.42-2.91 11.31-4.75 22.92-6.58 34.47a1106.61 1106.61 0 0 0-6.41 46.18c-1.21 10.55-1.5 21.2-2.2 31.81-1.28 19.31-2.97 38.61-3.72 57.94-.68 17.28-.43 34.6-.4 51.9.04 27.23.16 54.46.4 81.7.14 16.05.28 32.11.96 48.15.6 14.01 1.95 27.99 2.97 41.98h-.09c.33 5.48.55 10.96 1.03 16.43.59 6.72 1.26 13.43 2.15 20.12a743.28 743.28 0 0 0 3.9 26.17 652.66 652.66 0 0 0 5.73 30.7c2 9.1 4.39 18.13 7.1 27.06 5.57 18.39 14.21 34.8 33.34 42.71 8.59 3.55 17.69 6.07 26.76 8.25 14.35 3.45 28.79 6.75 43.35 9.15 17.33 2.86 34.83 4.74 52.26 6.98 15.62 2 31.23 4.12 46.89 5.81 14.59 1.58 29.22 2.71 43.84 3.97a5235.9 5235.9 0 0 0 46.79 3.9c13.99 1.08 28 2.05 42.01 2.94 16.81 1.06 33.62 1.99 50.43 2.95a5352.04 5352.04 0 0 0 77.02 3.91c15.72.69 31.43 1.37 47.16 1.94 11.82.43 23.65.76 35.48.98 18.41.33 36.83.78 55.24.74 45.31-.11 90.62-.43 135.94-.75 6.55-.05 13.09-.62 19.64-.86 19.52-.7 39.04-1.41 58.57-2.02 13.64-.42 27.28-.63 40.91-1.04 5.4-.16 10.79-.6 16.18-.95 15.02-.97 30.03-2.03 45.05-2.93 7.68-.46 15.38-.62 23.07-.98 5.72-.27 11.45-.55 17.16-1 15.97-1.25 31.92-2.65 47.89-3.87 10.11-.77 20.26-1.14 30.36-2.02 12.66-1.11 25.29-2.61 37.94-3.85 10.87-1.06 21.79-1.71 32.62-3.01 19.7-2.36 39.43-4.63 59.02-7.76 22.69-3.63 45.3-7.85 67.82-12.4 8.89-1.79 17.63-4.68 26.11-7.91 19.94-7.6 28.73-24.34 34.33-43.09 3.3-11.05 5.9-22.35 8.11-33.67a867 867 0 0 0 7.85-46.4c1.83-13.01 2.88-26.14 4.02-39.23 1.14-13.16 2.21-26.33 2.84-39.52.89-18.75 1.85-37.53 1.87-56.29.04-40.81-.47-81.62-.83-122.42Z" style="fill:#feffff"/><path d="M4.43 516.16c-1.03-14.3-2.39-28.59-3-42.92-.69-16.39-.83-32.81-.97-49.22-.24-27.84-.36-55.68-.4-83.52-.03-17.69-.28-35.39.41-53.06.76-19.76 2.47-39.49 3.76-59.23.71-10.84 1-21.73 2.22-32.52a1136.4 1136.4 0 0 1 6.47-47.21c1.84-11.81 3.7-23.67 6.64-35.24 3.71-14.62 6.86-29.58 15.73-42.35C45.61 56.03 60.2 47.64 77.45 43.83c19.72-4.36 39.5-8.59 59.41-11.89 18.43-3.06 37.06-4.99 55.64-7.11 16.67-1.9 33.38-3.45 50.08-5.03 11.64-1.1 23.3-2.07 34.95-2.99 17.74-1.39 35.49-2.73 53.24-4 15.14-1.08 30.29-2.12 45.44-2.98 19.49-1.11 38.98-2.05 58.48-3.02 14.37-.71 28.75-1.43 43.13-1.98 19.53-.75 39.06-1.36 58.59-2.02 10.27-.35 20.53-.82 30.8-.97C612.27 1.15 657.34.38 702.4.01c21.14-.17 42.29.45 63.43.81 14.6.25 29.19.57 43.78 1.02 19.2.59 38.39 1.27 57.58 2.01 14.53.56 29.06 1.27 43.59 1.95 14.2.66 28.41 1.29 42.61 2.07 16.99.93 33.97 1.95 50.95 3.04 13.48.86 26.96 1.83 40.44 2.83 12.82.95 25.64 1.83 38.43 3.06 15.36 1.48 30.67 3.36 46.02 4.94 13.87 1.42 27.79 2.39 41.63 4.07 13.28 1.62 26.5 3.81 39.72 5.93 16.29 2.62 32.68 4.83 48.78 8.33 13.6 2.95 27.46 5.54 39.56 13.41 18.89 12.29 29.04 30.04 33.51 51.62 2.46 11.84 5.49 23.56 7.69 35.44 1.85 9.98 2.94 20.11 4.24 30.19 1.39 10.75 2.86 21.5 3.9 32.29a643.92 643.92 0 0 1 2.09 30.11c.8 15.86 1.34 31.72 2.06 47.58.2 4.44.87 8.86.91 13.29.37 41.72.88 83.44.84 125.15-.02 19.18-.99 38.38-1.89 57.55-.63 13.48-1.72 26.95-2.86 40.4-1.14 13.39-2.21 26.81-4.05 40.11a907.08 907.08 0 0 1-7.93 47.43 371.77 371.77 0 0 1-8.18 34.42c-5.64 19.17-14.52 36.28-34.64 44.05-8.56 3.31-17.38 6.26-26.35 8.09a1690.79 1690.79 0 0 1-68.44 12.68c-19.76 3.2-39.67 5.52-59.55 7.93-10.94 1.33-21.95 2-32.92 3.08-12.77 1.26-25.51 2.8-38.28 3.93-10.19.9-20.43 1.28-30.64 2.06-16.11 1.25-32.21 2.68-48.32 3.96-5.76.46-11.54.75-17.32 1.02-7.76.37-15.52.53-23.27 1-15.16.92-30.3 2-45.45 2.99-5.44.36-10.88.81-16.32.97-13.76.42-27.52.63-41.28 1.06-19.7.62-39.4 1.35-59.1 2.07-6.61.24-13.21.83-19.82.88-45.72.33-91.44.66-137.16.77-18.58.04-37.16-.41-55.74-.76-11.94-.22-23.87-.56-35.8-1-15.86-.58-31.72-1.28-47.58-1.99-13.88-.62-27.76-1.29-41.63-2-12.03-.62-24.06-1.3-36.08-1.99-16.96-.98-33.93-1.93-50.88-3.01-14.13-.9-28.26-1.89-42.39-3-15.75-1.23-31.48-2.61-47.22-3.98-14.75-1.29-29.52-2.44-44.24-4.06-15.8-1.73-31.55-3.89-47.31-5.94-17.59-2.29-35.25-4.21-52.73-7.13-14.69-2.46-29.26-5.82-43.74-9.35-9.15-2.23-18.34-4.8-27-8.43-19.3-8.09-28.02-24.86-33.64-43.66a371.65 371.65 0 0 1-7.16-27.66 665.8 665.8 0 0 1-5.79-31.38 755.9 755.9 0 0 1-3.94-26.75c-.9-6.83-1.57-13.7-2.17-20.57-.48-5.59-.7-11.2-1.04-16.79h.09Zm1327.01-224.42-.84-.01c-.75-17.18-1.46-34.37-2.26-51.55-.22-4.77-.57-9.54-1.02-14.3-.92-9.8-1.95-19.59-2.92-29.38-.71-7.17-1.08-14.39-2.16-21.5-2.05-13.43-4.16-26.87-6.88-40.17-2.62-12.79-5.11-25.73-9.32-38.04-6.33-18.49-21.14-27.78-39.57-31.72a1596.46 1596.46 0 0 0-47.99-9.59c-9.23-1.68-18.61-2.49-27.91-3.77-11.82-1.62-23.6-3.56-35.45-4.91-11.57-1.31-23.22-1.93-34.81-3.06-15.87-1.56-31.7-3.47-47.58-4.94-13.28-1.23-26.59-2.11-39.89-3.03-15.47-1.07-30.95-2.05-46.42-3.03a4533.24 4533.24 0 0 0-116.79-5.91c-18.53-.71-37.07-1.35-55.61-1.97-12.1-.4-24.19-.76-36.29-1.01-18.59-.38-37.19-.96-55.78-.91-38.1.1-76.19.5-114.29.89-13.27.14-26.53.62-39.8.97-11.93.31-23.86.63-35.79 1-9.27.29-18.53.63-27.8.99a19724.43 19724.43 0 0 0-94.7 3.99c-14.38.64-28.76 1.16-43.13 2.01-20.92 1.23-41.84 2.6-62.75 4.11-9.85.71-19.66 2.01-29.5 2.84-9.87.83-19.79 1.12-29.63 2.18-19.44 2.08-38.85 4.49-58.26 6.84-16.31 1.98-32.73 3.42-48.89 6.28-20.21 3.58-40.29 8.02-60.27 12.76-13.25 3.14-23.21 11.76-27.55 24.39-5 14.55-8.41 29.74-11.31 44.88a890.99 890.99 0 0 0-8.84 57.22c-1.97 15.83-3.03 31.78-4.06 47.71-.98 15.18-1.85 30.39-1.99 45.59-.35 36.61-.27 73.22-.3 109.84-.01 18.14-.23 36.29.32 54.42.5 16.32 1.95 32.62 2.9 48.93.44 7.58.34 15.21 1.08 22.76 1.42 14.51 3.15 29 4.98 43.47 1.17 9.23 2.12 18.56 4.28 27.58a677.75 677.75 0 0 0 12.42 45.17c4.42 14.04 14.12 22.98 28.77 26.28 9.07 2.04 18.01 4.63 27.1 6.56a780.46 780.46 0 0 0 32.89 6.21c9.56 1.61 19.19 2.78 28.78 4.14 9.39 1.32 18.76 2.81 28.17 3.9 10.62 1.23 21.29 2.04 31.93 3.15 11.79 1.24 23.55 2.75 35.35 3.89 9 .87 18.04 1.26 27.05 2.03 14.91 1.27 29.8 2.81 44.71 3.97 15.14 1.18 30.3 2.07 45.45 3.02 16.47 1.04 32.95 2.04 49.43 3 12.36.72 24.73 1.4 37.1 1.99 15.04.73 30.08 1.39 45.12 2 17.7.72 35.4 1.47 53.1 1.97 17.92.5 35.85.75 53.78 1.02 7.66.12 15.32.09 22.98.03 38.08-.3 76.16-.47 114.23-1.03 21.71-.32 43.41-1.28 65.11-1.98 9.1-.29 18.2-.64 27.3-.98 17.71-.66 35.42-1.33 53.12-2.02 7.77-.3 15.55-.52 23.31-1.03 19.26-1.26 38.5-2.67 57.76-3.99 10.03-.69 20.07-1.27 30.11-1.95 14.32-.98 28.64-2 42.96-3.01 4.95-.35 9.9-.6 14.84-1.07 10.15-.95 20.28-2.07 30.43-3.02 7.87-.73 15.77-1.14 23.62-2 10.64-1.16 21.24-2.66 31.86-3.93 9.14-1.1 18.33-1.86 27.44-3.19a702.97 702.97 0 0 0 34.45-5.78 2142.3 2142.3 0 0 0 57.73-12.08c11.77-2.66 21.71-8.56 26.94-20.02 3.24-7.11 6.68-14.41 8.15-21.99a1839.2 1839.2 0 0 0 12.13-70.81 602.86 602.86 0 0 0 4.91-43.02c1.41-17.43 2.29-34.9 3.07-52.37.64-14.25 1.05-28.51 1.1-42.77.14-41.05.05-82.1.05-123.15Z" class="cls-3"/><path d="M1116.53 673.92c-13.59 1.33-27.17 2.69-40.76 3.97-8.03.76-16.08 1.42-24.12 2.06a6214.87 6214.87 0 0 1-38.45 2.96c-5.77.42-11.54.68-17.31 1.05-15.65.99-31.3 2.06-46.96 2.95-8.25.47-16.52.51-24.78.94-11.39.6-22.78 1.42-34.17 2.08-7.1.41-14.21.79-21.31 1-13.76.4-27.53.64-41.29 1-12.43.33-24.85.74-37.28 1.09-11.44.32-22.88.78-34.32.89-34.23.33-68.46.52-102.69.76-12.98.09-25.97.35-38.95.23-15.76-.15-31.52-.58-47.27-.97a2637.5 2637.5 0 0 1-30.79-.99c-18.21-.65-36.42-1.27-54.63-2.01-14.04-.57-28.09-1.19-42.12-2.01-14.14-.83-28.26-2-42.4-2.91-7.42-.48-14.86-.58-22.27-1.08-12.83-.87-25.65-1.93-38.48-2.88-5.6-.41-11.22-.67-16.82-1.11-15.43-1.24-30.86-2.58-46.3-3.81-10.02-.79-20.06-1.25-30.06-2.21-11.43-1.09-22.83-2.59-34.25-3.86-12.56-1.39-25.14-2.57-37.68-4.13-9.08-1.13-18.12-2.64-27.16-4.13-11.49-1.89-22.94-3.97-34.42-5.91-10.28-1.74-20.06-4.63-29.03-10.3-10.88-6.88-17.57-16.46-20.29-28.86-3.05-13.89-6.28-27.76-8.7-41.77-1.94-11.25-2.92-22.67-4.05-34.05a3319.35 3319.35 0 0 1-5.05-55.46c-.66-8.07-.83-16.18-.98-24.28-.72-38.72-1.58-77.44-1.92-116.16-.19-21.79.13-43.61.97-65.38.68-17.61 2.51-35.17 3.8-52.76.73-10.01 1.05-20.06 2.16-30.02 1.24-11.18 3.1-22.29 4.82-33.41 1.62-10.51 3.19-21.04 5.19-31.49a256.52 256.52 0 0 1 5.24-21.48C66.28 95 78.02 86.07 94.12 82.84c20.42-4.1 40.93-7.81 61.5-11.02 18.2-2.84 36.52-4.91 54.82-7.04 13.55-1.58 27.15-2.66 40.72-4.05 15.58-1.59 31.13-3.46 46.72-4.87 11.01-.99 22.06-1.4 33.1-2.11 14.99-.98 29.97-2 44.96-3 10.03-.67 20.05-1.4 30.08-1.97 18.81-1.06 37.62-2.02 56.43-3.01 12.86-.68 25.72-1.45 38.59-1.97 18.88-.77 37.76-1.44 56.64-2 15.26-.45 30.53-.86 45.79-.99 47.06-.4 94.11-.76 141.17-.91 14.43-.05 28.86.57 43.29.94 10.94.28 21.87.58 32.8 1 15.21.58 30.42 1.23 45.62 1.92a4497.63 4497.63 0 0 1 73.15 3.96c16.13.99 32.26 1.97 48.38 3.06 13.47.91 26.94 1.9 40.39 2.97 15.92 1.27 31.83 2.61 47.73 4.04 13.92 1.25 27.85 2.44 41.74 4.03 18.37 2.11 36.72 4.46 55.05 6.92 18.73 2.51 37.5 4.87 56.12 8.08 12.74 2.2 25.35 5.37 37.84 8.78 14.61 4 22.37 14.18 24.8 29.04 1.8 10.99 4.73 21.79 6.55 32.77 2.11 12.77 3.59 25.64 5.29 38.47 1.22 9.26 2.55 18.52 3.48 27.81.77 7.73.98 15.5 1.54 23.25.89 12.32 1.87 24.64 2.81 36.95.06.83.11 1.66.12 2.49.35 16.91.77 33.82 1.04 50.74.36 22.59.75 45.18.84 67.77.05 11.77-.39 23.55-.82 35.32-.54 14.7-1.15 29.4-2.01 44.08-.79 13.64-1.72 27.28-3 40.88-.98 10.45-2.61 20.84-3.93 31.25-1.67 13.15-2.92 26.38-5.09 39.45a507.69 507.69 0 0 1-8.27 40.12c-2.38 9.52-9.39 15.7-17.73 20.64-11.2 6.64-23.66 9.02-36.14 11.25a1436.62 1436.62 0 0 1-54.92 8.94c-15.83 2.2-31.79 3.47-47.68 5.21-5.7.63-11.38 1.43-17.07 2.16l-.04-.29Zm19.74-25.1.03.25c8.81-1.03 17.63-2.02 26.44-3.09 11.1-1.35 22.23-2.57 33.28-4.23a997.08 997.08 0 0 0 33.42-5.8c11-2.04 22.18-3.56 32.05-9.48 3.69-2.21 6.42-4.73 7.17-9.47 1.33-8.36 3.67-16.55 5.08-24.89a1489.3 1489.3 0 0 0 7.7-49.23c1.46-10.73 2.13-21.58 2.99-32.39 1.39-17.41 2.78-34.81 3.92-52.24.61-9.24.77-18.52 1.02-27.78.38-13.75.94-27.51.92-41.26-.02-16.92-.56-33.83-.88-50.75-.33-17.58-.62-35.17-1.02-52.75-.22-9.43-.57-18.85-.99-28.27-.25-5.6-.63-11.2-1.15-16.78-.86-9.32-1.92-18.62-2.82-27.93-.78-8.01-1.19-16.07-2.24-24.04a662.73 662.73 0 0 0-4.75-30.04 3033.4 3033.4 0 0 0-8.11-43.16c-.79-4.07-3.36-6.75-7.4-7.82-7.45-1.98-14.84-4.4-22.41-5.74a2817.28 2817.28 0 0 0-64.56-10.56c-8.78-1.34-17.71-1.73-26.55-2.75-10.56-1.22-21.07-2.85-31.64-3.95-11.62-1.21-23.29-1.93-34.92-3.01-13.73-1.27-27.43-2.78-41.16-4.01a2223.07 2223.07 0 0 0-37.39-2.94 6258.97 6258.97 0 0 0-45.43-3.09c-10.7-.7-21.4-1.31-32.1-1.92-11.87-.68-23.74-1.35-35.61-1.96-13.71-.7-27.42-1.4-41.14-1.98-17.37-.73-34.74-1.52-52.11-1.95-24.07-.59-48.16-1.28-72.23-1.21-49.56.13-99.12.7-148.68 1.18-7.77.07-15.54.66-23.31.95-18.37.69-36.74 1.27-55.1 2.03-13.23.55-26.44 1.34-39.67 1.96-15.37.72-30.75 1.34-46.12 2.04-7.94.36-15.89.6-23.81 1.21-14.62 1.13-29.22 2.6-43.84 3.72-11.03.84-22.08 1.34-33.12 2.04-5.27.34-10.54.71-15.8 1.23-8.66.85-17.3 1.93-25.96 2.73-8.87.82-17.78 1.23-26.63 2.19-13.21 1.43-26.38 3.21-39.57 4.8-14.68 1.77-29.43 3.04-44.03 5.33a1345.18 1345.18 0 0 0-53.81 9.82c-9.3 1.85-18.75 4.01-21.24 15.52-1.81 8.39-4.26 16.66-5.62 25.11-2.67 16.64-4.87 33.36-7.07 50.07-1.52 11.53-3.05 23.08-3.94 34.67a1667.33 1667.33 0 0 0-3.03 51.95c-.61 13.57-.85 27.17-1.02 40.76-.17 13.15-.22 26.3 0 39.45.56 33.34 1.28 66.67 2 100.01.21 9.59.58 19.18.98 28.76.25 5.93.46 11.87 1.08 17.77 1.18 11.25 2.65 22.47 3.98 33.7 1.08 9.09 1.83 18.24 3.28 27.27 1.94 12.03 4.93 23.91 6.53 35.98 1.76 13.3 8.37 23.1 20.86 26.73 13.78 4 28.19 5.95 42.41 8.25 13.3 2.15 26.71 3.58 40.08 5.32 12.36 1.61 24.69 3.42 37.07 4.77 9.32 1.02 18.72 1.29 28.06 2.16 16.33 1.52 32.63 3.39 48.97 4.85 13.62 1.21 27.27 2.17 40.92 3 14.02.86 28.06 1.28 42.08 2.16 12.34.77 24.64 2.06 36.98 2.83 13.53.85 27.09 1.37 40.63 2.04 13.69.67 27.38 1.4 41.08 1.98 10.59.44 21.2.69 31.8 1.03 10.27.33 20.54.75 30.81.98 17.59.4 35.17.72 52.76.99 4.65.07 9.31-.24 13.96-.27 45.07-.25 90.14-.32 135.21-.79 21.03-.22 42.06-1.15 63.09-1.86 17.37-.59 34.73-1.28 52.1-2.03 13.55-.58 27.09-1.25 40.63-1.98 17.32-.93 34.63-2 51.95-2.95 13.53-.74 27.07-1.39 40.6-2.1 5.61-.3 11.22-.57 16.82-1.03 15.44-1.27 30.87-2.64 46.31-3.95 8.38-.71 16.77-1.22 25.13-2.09 11.94-1.24 23.85-2.71 35.77-4.09Z" class="cls-3"/><path d="M794.78 528.11h-59.11v-5.81c0-44.6-.12-89.2.06-133.79.08-19.84-13.83-33.53-32.52-34.02-18.48-.49-32.98 14.48-33.03 33.85-.12 44.43-.04 88.86-.04 133.29v6.32h-59.66V298.53h59.22v10.17c16.23-11.3 32.96-17.24 51.88-16.32 18.79.91 35.04 7.49 49.16 20.13 11-8.66 23.01-15.27 36.66-17.94 19.81-3.87 39.05-2.95 58.04 5.56 29.1 13.05 46.4 35.12 53.6 65.59a82.87 82.87 0 0 1 1.99 18.66c.16 46.76.09 93.52.08 140.28 0 .98-.13 1.97-.22 3.3h-59.87v-5.89c0-45.26-.05-90.53.02-135.79.03-17.62-11.34-30.16-25.84-33.31-20.68-4.49-39.46 12.31-39.46 30.92.02 45.76 0 91.52 0 137.29 0 1.99-.1 3.99-.15 5.98l-.81.94Z" class="cls-2"/><path d="M115.27 374.57h58.72v5.34c0 11.32-.26 22.64.06 33.95.69 24.28 12.7 41.73 33.83 52.77 34.02 17.78 74.4-2.89 83.8-37.11 7.59-27.63-3.23-57.15-31.79-70.97a61.81 61.81 0 0 0-27.27-6.08c-37.47.04-74.93.02-112.4.01h-6.07V202.51h59.72v89.99h5.77c17.48 0 34.98-.35 52.45.07 52.51 1.25 90.33 25.56 112.46 73.26 5.09 10.96 8.54 22.73 8.53 35.12-.01 10.36 1.18 20.95-.48 31.05-4.63 28.19-17.86 52.03-39.46 71.06-17.91 15.78-38.91 25.06-62.19 28.9-14.53 2.4-29.16 1.61-43.63-2.02-37.37-9.37-64.47-31.37-81.67-65.65a108.9 108.9 0 0 1-11.7-50.03l.21-38.92 1.1-.78ZM599.57 429.01H422.41c1.37 3.19 2.33 5.66 3.48 8.05 8.86 18.47 23.01 30.75 43.29 34.55 24.98 4.68 45.06-4.4 60.53-24.08 2.06-2.63 3.95-3.91 7.32-3.89 19.79.13 39.57.06 59.43.06-13.2 55.45-68.07 94.07-124.58 89.09-72.08-6.34-115.76-67.96-111.43-127.4 5.32-73.04 65.63-114.38 123.16-112.85 70.3 1.87 125.62 63.14 115.97 136.47Zm-63.96-39.81c-8.05-23.6-33.06-37.85-64.19-35.66-20.3 1.43-40.9 19.81-45.27 35.66h109.46ZM1168.6 409.51c-.63 69.49-53.51 126.2-126.29 123.41a119.8 119.8 0 0 1-114.3-123.72c1.19-60.24 48.66-110.53 107.91-115.77 38.26-3.38 71.28 8.07 98.37 35.39 23.17 23.37 33.72 52.07 34.32 80.7Zm-120.26-56.12c-32.14-2.46-60.91 27.18-60.49 59.57.41 32.39 25.76 59.6 59.49 60.03 34 .44 61.03-25.55 61.14-60.34.1-33.39-27.72-61.25-60.14-59.25Z" class="cls-1"/><path d="M1236.73 528.1h-59.26V202.49h59.26v325.6Z" class="cls-2"/></svg>